# xmcd
#
# Track frame offsets:
# 150
# 13320
# 23360
# 34540
# 46032
# 59837
# 79857
# 92552
# 103927
# 113897
# 121685
# 132972
# 146542
# 159767
# 169275
#
# Disc length: 2427 seconds
#
#
# Revision: 0
# Processed by: cddbd v1.5.2PL0 Copyright (c) Steve Scherf et al.
# Submitted via: FreeRIP 2.944 
#
DISCID=ba09790f
DTITLE=Cascatinha e Inhana - Grandes Sucessos
DYEAR=2001
DGENRE=Sertaneja
TTITLE0=TU SEMPRE TU
TTITLE1=CORAÇÃO FERIDO
TTITLE2=ONDE ESTÁS FELICIDADE
TTITLE3=SOMENTE TU
TTITLE4=NÃO ME CENSURES
TTITLE5=JAMAIS TEREI ILUSÃO
TTITLE6=CASA VAZIA
TTITLE7=QUE SAUDADE
TTITLE8=MEU SENTIMENTO
TTITLE9=SEJA SINCERO
TTITLE10=UM NOVO AMANHÃ
TTITLE11=ALMA VAZIA
TTITLE12=NÃO VÁ EMBORA
TTITLE13=ESPINHOS DE AMOR
TTITLE14=MEU PASSADO
EXTD=
EXTT0=
EXTT1=
EXTT2=
EXTT3=
EXTT4=
EXTT5=
EXTT6=
EXTT7=
EXTT8=
EXTT9=
EXTT10=
EXTT11=
EXTT12=
EXTT13=
EXTT14=
PLAYORDER=
